<svg xmlns="http://www.w3.org/2000/svg" viewBox="0 0 429.99 460.38"><defs><style>.cls-1{fill:#512f00;}.cls-2{fill:#ff7ead;}.cls-3{fill:#ffbcdc;}.cls-4{fill:#ffcfe4;}.cls-5{fill:#ffa4c7;}.cls-6{fill:#ff85bb;}.cls-7{fill:#ffddec;}.cls-8{fill:#fffdfa;}.cls-9{fill:#fffefc;}.cls-10{fill:#fffdf0;}.cls-11{fill:#fdfff5;}.cls-12{fill:#fefffa;}</style></defs><title>アートボード 1</title><g id="レイヤー_3" data-name="レイヤー 3"><path class="cls-1" d="M173.09,447c-1.72,1.89-11.83,11.53-13.55,13.42h131C281.72,448.84,275,429.69,270.1,416l-8-22.15.36,1c-.7-21.89-18.57-40.41-19.33-62.3-.36-10.44,3.23-20.56,6.79-30.37,2.95-8.13,5.92-16.3,10.12-23.85,13.87-24.89,39.42-40.51,63-56.45,5.17-3.49,11-9.2,8.48-14.91A45.09,45.09,0,0,1,305,222.31c-8.34,1.44-17.11.51-25.12,3.24-9.51,3.23-17.15,11.36-27.09,12.84a11.11,11.11,0,0,1-6.64-.73c-4.51-2.28-5.47-8.19-5.87-13.23-1-12.61-1.78-26.23,5-36.91,3.16-5,8-9.7,7.53-15.57-.2-2.31-1.24-4.47-1.55-6.77-1.4-10.36,11.87-17.53,12.62-28-12.1,5.12-23.41,12.54-31.72,22.72s-13.41,23.26-12.61,36.37c.86,14.06,8.21,28.36,3.45,41.61-1.21,3.35-4,6.87-7.55,6.31a9.27,9.27,0,0,1-4.09-2.23c-12.14-9.63-25.1-20.57-28-35.8-1.68-8.92.43-18.07,2.52-26.9l6-25.24c1.89-8,3.78-16.21,2.21-24.23s-7.63-15.78-15.76-16.58c10.51,17.66,4.38,40.53-5.28,58.67-5.84,11-13.14,22.86-10.06,34.89a140,140,0,0,1-52.08-66c-3.69-9.77-8.76-22-19.2-22.24a157.48,157.48,0,0,0,23.57,57.62c6,9,12.88,17.31,19.61,25.74a945.16,945.16,0,0,1,61,85.76A141,141,0,0,0,144.43,259c-6.68-2.05-13.59-3.64-19.73-7a38.51,38.51,0,0,1-18.38-23c1.25,16.41,9.84,33.17,24.85,39.94,4.58,2.07,9.54,3.14,14.15,5.15,16.27,7.1,25.65,24.66,41.07,33.46,6.53,3.73,14.82,6.67,17,13.87,1,3.25.42,6.74-.15,10.08-6.75,40.07-13,74.36-28.65,111.85"/></g><g id="レイヤー_2" data-name="レイヤー 2"><path class="cls-2" d="M324.87,119.39c-2.19.71-.88,17.12-3.17,17.47S315.87,118,313.56,118s-4.35,7.72-6.61,7.28-5,1.42-7.18.55-.56-7.3-2.47-8.62-3.3-1.15-4.86-2.91-3.91-1.85-5-3.92-.3-4.17-1-6.42-8.14-2.69-8.5-5c-.34-2.14-5-4.61-5-6.79s2.25-5,2.55-7.2-4.09-6.44-3.49-8.52,18.09,2.08,19,.13-2-5-.76-6.79-1.52-6.82.08-8.3,5-.12,6.73-1.2,1.53-6.21,3.41-7,5.89,5.64,7.87,5.2,3.15-3.62,5.18-3.75,3.59,2.92,5.61,3.1,5.1-6.44,7.07-5.94,6.35-3.75,8.24-3-3.74,17-1.95,18,14.52-14.7,16.18-13.48-10.14,19-8.62,20.37,3.73.81,5.1,2.33S358.5,70.31,359.72,72c1.09,1.46-.13,5.08.8,6.67s0,4.41.68,6.12,2.47,3.55,2.68,5.39,8.35,5.51,8.1,7.45-20.26-.17-20.8,1.7c-.63,2.17-.54,3.1-1.52,5.18s3.95,6.42,2.65,8.27,1.81,7.8.16,9.33-2,8.05-4,9.09-9.12-12.46-11.42-12.12-3.52,15.11-5.87,15.18-2-.8-4.18.1"/><path class="cls-3" d="M269.15,54.36c2.2-.07,4.79-19.12,7.05-19s2.2,23,4.43,23.27,5.49-8.53,7.66-8,5.06-1.83,7.16-1.14,1.16,8.41,3.16,9.31,3.83.48,5.66,1.66,4.34.29,5.9,1.79.64,3.3,1.67,4.83,9.21-.68,9.85,1.07,6.44,4,6.6,5.86c.18,2.11-2.52,6.1-3,8.13s3.39,8.55,2.31,10.4-18.78-9.19-20.34-7.68,1.09,5.49-.79,6.61c-1.71,1-.62,7.54-2.69,8.29s-5.3-2.19-7.64-1.74-3.92,6.13-6.28,6.28-4.6-8.39-6.93-8.48-4.59,3.23-6.89,2.92-3.65-4.14-5.89-4.65-6.62,6.86-8.79,6.15-6.77,4.32-8.71,3.5,4.62-19.81,2.76-20.78S239.76,101.17,238,100,248.6,77.26,246.94,76s-4.1-.32-5.63-1.74-14.73,8.5-16.1,6.94c-1.55-1.76-.69-6.48-1.77-8.35-1.23-2.11-.09-6-.13-8.09-.06-2.84.11-7,1.81-9.43,1.18-1.7-3.2-11.16-1.46-12.66,1.59-1.37,16.69,16.51,18.7,15.43S244,56.63,246.2,56s1.39-8.15,3.65-8.39c2.1-.22,4.28-7.54,6.55-7.37,1.82.14,4.9-5.49,6.74-5.21s1.26,18.27,3.08,18.47,3.76-17.08,5.56-17.22"/><path class="cls-4" d="M124.12,35.79c1.42-1.5-10.19-17.31-8.58-18.62S132.26,33.6,134,32.51s-1.75-10,.14-10.82,2.6-4.4,4.58-5,5.12,6.61,7.17,6.32,2.95-1.6,5-1.55,3.5-2.07,5.55-1.66,2.63,2.55,4.59,3.32,7.48-6,9.33-4.84,7.32-1.49,9-.11S181.52,23.45,183,25s8.25,0,9.53,1.77-15.23,15.49-14.1,17.48,6.18,1.1,7.06,3.21,7.72,2,8.35,4.14-2.58,5.23-2.24,7.47,6.1,4.23,6.12,6.5-8.83,3.86-9.16,6.11,2.77,4.76,2.05,6.92c-.66,2-4.57,2-5.52,3.83s5.16,7.95,3.94,9.61,1.67,8.2.2,9.67-16.35-12.62-18-11.38S180.7,113,178.88,114,164.36,93,162.42,93.74s-1.81,3.17-3.83,3.65-1.16,17.29-3.26,17.52-5-3.28-7.11-3.3-4.3-2.6-6.4-2.84-4.6,1-6.68.53-7.23,8.42-9.26,7.8,3.93-23.91,2-24.69-3.28-.85-5.18-1.79-7.07,5-9,3.8-8.3,3.3-10,1.79-8.88-.48-10.15-2.35,13.56-12.75,12.71-15-18.59.33-19.09-2-.44-5.82-.65-8.12,2.4-5.75,2.5-8,5.89-4.57,6.35-6.79,3.38-3.83,4.25-5.92,11.8,3.49,13.16,1.67S99.18,30.23,101.07,28.84c1.49-1.1,13.65,14.44,15.29,13.53S116.28,34,117.82,33s9.83,2.4,11,.92"/><path class="cls-5" d="M107.27,134.43c-2,.52.53,22.94-1.54,23.28s-7.24-26-9.32-25.82S93.38,143,91.3,143s-4.24,3.38-6.29,3.17-2.35-9.25-4.37-9.67-3.59.66-5.55,0-4.21,1.28-6.07.4-1.93-3.41-3.64-4.55-9.22,5.4-10.73,4-8.2.28-9.43-1.36-.63-6.08-1.59-7.91-8.94-2.4-9.61-4.36,22.52-10.37,22.14-12.41S50,107.83,50,105.64s-7.43-4.5-7.14-6.67,5-3.41,5.59-5.51-4.57-6.56-3.63-8.55,10.66,1.26,11.9-.56-1-5.6.54-7.21,5.42.49,7.19-.85-2.07-10.4-.26-11.41,1.29-9,3.21-9.77S78.71,76,80.7,75.41s-1.87-28.06.16-28.4,7.62,28.42,9.68,28.28,2.88-2.88,4.94-2.83,5.29-19,7.33-18.81,4,4.79,6,5.22c2.24.48,4,3.84,6.13,4.53s5.15-.17,7.23.72,9.81-8,11.81-6.94-10.12,25.93-8.22,27.18,3.18,1.5,5,2.9,8.79-4.25,10.44-2.7,9.45-2.77,11-1.09,9-.34,10.21,1.41-15.61,14.31-14.74,16.25,21.18-1.15,21.47,1-.54,7.71-.91,9.92-4.38,5.15-5.13,7.25c-.68,1.89-7.54,1.82-8.5,3.66s-4.32,2.13-5.52,3.81-12.67-6.75-14.09-5.26,15.17,22.52,13.55,23.77S133,128.71,131.18,129.67s.74,9-1.23,9.65-4.44-8.33-6.52-8.1-3,1.76-5.15,1.77-3.45,22-5.58,22.13-8.79-22-10.84-21.34"/><path class="cls-2" d="M117.24,102.12c1.66-1.48-4.33-13.24-2.42-14.48s11.3,11.22,13.34,10.28,1.27-7.39,3.41-8,4-3,6.16-3.11,3.5,5,5.66,5.52c2.43.54,3.53.13,5.49,1.36s4,1.07,5.52,2.87.94,3.38,1.77,5.39,6.74,2.48,6.94,4.68,3.55,5.53,3.11,7.72-3.09,4.75-4.12,6.77c-.88,1.74.81,6.66-.47,8.23s-12.93-6.82-14.45-5.49-.55,4.69-2.23,5.78-1.2,5.77-3,6.61-4.57-.78-6.45-.2c-2.3.71-3.89,4.87-6.21,5.2s-5.07-5.31-7.41-5.33-4.65,2.19-7,1.83-3.83-3.18-6.05-3.88c-1.8-.57-5.67,3.95-7.25,3.07s-7.35-.15-8.43-1.61c-1.48-2,10.17-9.21,9.87-11.73-.25-2-16.15-4.51-15.85-6.65s17.06.25,17.89-1.72-.51-2.79.84-4.46-4.85-11-3-12.21c1.61-1.09,4.92-.08,6.64-1s4.07-.47,5.43-1.84"/><path class="cls-5" d="M226,248.16c-2,.59-1.17,16-3.31,16.32s-5.25-17.79-7.4-17.82-4.09,7.26-6.19,6.89-4.68,1.44-6.67.71-.79-6.84-2.6-8-3.12-.91-4.62-2.46-3.53-1.33-4.58-3.07-.26-3.56-.94-5.49-7.6-2-7.94-4c-.37-2.23-4.74-5-4.67-7.29s2.43-5.29,2.93-7.49-2.93-7.21-2-9.27,16.53,4.37,17.9,2.56-.78-5.15,1-6.61.63-6.79,2.65-7.83,5.19.91,7.39.29,3.69-5.36,6-5.59,4.56,6.58,6.82,6.72,4.5-2.37,6.69-1.86,3.1,3.77,5.16,4.6,6.89-4.2,8.83-3.09,7.17-1.51,8.95-.16-7,14.95-5.4,16.5,17.14-9.45,18.55-7.72S248.89,219.87,250,222s2.76.88,3,3.25c.2,1.66,13.18,3.27,12.93,4.92s-3.61,3.27-4.12,4.86c-.62,1.91-3.3,3.35-4.28,5.17s-1.18,4.44-2.46,6,1.86,9.43.28,10.71-13.19-13.46-15.05-12.63-1.21,1.06-3.29,1.32-3.39,6.19-5.59,6.23-3.26,5.88-5.33,6.64"/><path class="cls-3" d="M174.25,174.67c-2.16.57-1.43,17-3.69,17.3s-5.57-19-7.83-19-4.27,7.78-6.49,7.46-4.89,1.7-7,1-1.22-7.25-3.17-8.32-3.36-.75-5-2.27-3.61-.95-4.72-2.57-.29-3.43-1-5.27-8.06-1.54-8.43-3.48c-.42-2.16-5.09-5-5-7.21s2.61-5.33,3.16-7.47-2.93-7.52-1.92-9.49,17.11,5.89,18.55,4.18-.81-5.22,1-6.58.94-7.15,3.14-8.16,5.44,1.2,7.78.6,4-5.61,6.35-5.83,4.82,7,7.21,7.15,4.74-2.6,7.06-2.12,3.35,3.89,5.5,4.65,7-4.86,9-3.83,7.38-2.12,9.28-.85-6.56,16.27-4.83,17.75,17.51-11.23,19-9.56-13.76,16.37-12.57,18.34,2.75.16,3.07,2.45c.44,3.15,13.34,7.23,12.26,10.27-.68,1.9-4.67,3.29-5.75,5.1s-4.13,2.53-5.53,4.08-2.28,4.14-4,5.34-.92,10.15-2.87,10.91-8.84-18-11-17.73a56.93,56.93,0,0,1-6.12.61c-2.39.05-5.39,6.8-7.6,7.54"/><path class="cls-2" d="M108,167.63c1.49-1.5-6.47-14.3-4.74-15.56s12.78,12.78,14.67,11.81.23-8.13,2.24-8.77,3.45-3.37,5.55-3.62,3.75,5.58,5.87,5.78,3.17-.57,5.2.14,3.83-.32,5.61.79,2,3.11,3.51,4.54,7.63-1.51,8.89.16c1.4,1.84,6.48,2.31,7.52,4.39s.46,5.83,1.1,8.05,6,4.92,6.16,7.22-16.11,4.49-16.4,6.79,3.11,4.21,2.28,6.4,2.7,6.14,1.47,8-4.89,1.77-6.48,3.36-.68,6.37-2.53,7.64-7-3.49-9-2.56-2.83,4.12-5,4.67-4.46-1.85-6.68-1.64-4.23,6.7-6.47,6.59-5.69,4.46-7.89,4-.57-16.1-2.71-16.77-10.86,15.71-12.89,14.81c-2.23-1,5-19,3-20.44s-3,.23-4.43-1.79c-1-1.42-12.92,3.09-13.51,1.47s1.5-4.65,1.17-6.33c-.39-2,1.2-4.55,1.15-6.63s-1.13-4.46-.82-6.49-6.13-7.2-5.39-9.1,17.72,4.85,18.93,3.19.5-1.49,2.21-2.72.05-6.88,1.95-7.95.08-6.54,1.51-8.19"/><path class="cls-2" d="M148.64,269.8c1,2.09,15.14.16,15.58,2.4s-16.12,5.64-16.24,7.92,6.47,4.37,5.75,6.55.4,5-.92,6.89-6.42-.72-8.25.82c-1.64,1.38-2.1,2.76-4.07,3.8s-2.73,3.13-4.83,3.84-4.08-.21-6.24.21c-2,.38-3.07,6.76-5.1,6.9s-4.49,4-6.51,3.93-4.48-2.2-6.46-2.55-5.94,3.32-7.84,2.7,2-15.75.22-16.67-4.62,1.51-6.19.25-6.18.78-7.4-.75,0-4.73-.84-6.51-5.37-2.55-5.8-4.5,5.67-4.48,5.69-6.48-2.38-3.77-1.92-5.73,3.49-2.72,4.38-4.66-3.48-6.63-2.28-8.4-.83-6.78.6-8.37,13.3,7.53,14.9,6.12S97.31,241.07,99,239.84c2-1.45,13.61,13,16,11.89s2-2.86,4.62-3.26c1.83-.28,2.88-12.43,4.73-12.34s3.9,3,5.71,3.35c2,.36,3.74,2.62,5.66,3.23s4.46.37,6.25,1.24,8.28-3.56,9.83-2.37-9.06,14.87-7.9,16.44,1,.35,1.51,2.32,5.88,2.16,6.05,4,5.51,2,6.47,3.72"/><path class="cls-2" d="M113.91,258.48c-2.16.44-1.51,19.79-3.76,20s-6-22.46-8.2-22.4-4,9.39-6.22,9.25-4.7,2.64-6.87,2.3-2.45-8.17-4.56-8.75-3.83.14-5.82-.73-4.32.41-6.09-.83-1.15-3.19-2.41-4.56-9.08,2.08-10,.43-7-2.95-7.49-4.79C52,246.37,54,242,54.14,239.89S49.3,232,50.05,230s20.27,5.79,21.55,4-2-5.27-.38-6.72-.69-7.6,1.23-8.71,5.6,1.27,7.82.44,2.81-6.75,5.1-7.29,5.94,7.56,8.25,7.27,4-4,6.29-4,4.26,3.51,6.55,3.65,5.42-7.9,7.67-7.55,6-5.39,8.07-4.89-1.49,20.44.51,21.11,12.7-20.63,14.63-19.78-7,24.32-5.2,25.32,4.1-.34,5.83.83,13.33-10.76,14.93-9.42c1.82,1.51,1.69,6.36,3.07,8.06,1.54,1.91,1,5.91,1.39,8,.52,2.84,1.05,7-.22,9.74-.88,1.89,5.15,10.48,3.69,12.27s-19.48-13.43-21.26-12-1.39,1.72-3.42,2.75.07,8.32-2.12,8.94-3,8.22-5.24,8.42c-1.81.16-3.94,6.27-5.79,6.29s-4.24-18-6.05-17.86-.83,17.59-2.58,18"/><path class="cls-2" d="M240.15,138.36c2.2-.07,4.79-19.12,7.05-19s2.2,23,4.43,23.27,5.49-8.53,7.66-8,5.06-1.83,7.16-1.14,1.16,8.41,3.16,9.31,3.83.48,5.66,1.66,4.34.29,5.9,1.79.64,3.3,1.67,4.83,9.21-.68,9.85,1.07,6.44,4,6.6,5.86c.18,2.11-2.52,6.1-3,8.13s3.39,8.55,2.31,10.4-18.78-9.19-20.34-7.68,1.09,5.49-.79,6.61c-1.71,1-.62,7.54-2.69,8.29s-5.3-2.19-7.64-1.74-3.92,6.13-6.28,6.28-4.6-8.39-6.93-8.48-4.59,3.23-6.89,2.92-3.65-4.14-5.89-4.65-6.62,6.86-8.79,6.15-6.77,4.32-8.71,3.5,4.62-19.81,2.76-20.78S210.76,185.17,209,184s10.61-22.78,8.95-24.05-4.1-.32-5.63-1.74-14.73,8.5-16.1,6.94c-1.55-1.76-.69-6.48-1.77-8.35-1.23-2.11-.09-6-.13-8.09-.06-2.84.11-7,1.81-9.43,1.18-1.7-3.2-11.16-1.46-12.66,1.59-1.37,16.69,16.51,18.7,15.43s1.69-1.45,3.86-2.11,1.39-8.15,3.65-8.39c2.1-.22,4.28-7.54,6.55-7.37,1.82.14,4.9-5.49,6.74-5.21s1.26,18.27,3.08,18.47,3.76-17.08,5.56-17.22"/><path class="cls-2" d="M158.24,102.12c1.66-1.48-4.33-13.24-2.42-14.48s11.3,11.22,13.34,10.28,1.27-7.39,3.41-8,4-3,6.16-3.11,3.5,5,5.66,5.52c2.43.54,3.53.13,5.49,1.36s4,1.07,5.52,2.87.94,3.38,1.77,5.39,6.74,2.48,6.94,4.68,3.55,5.53,3.11,7.72-3.09,4.75-4.12,6.77c-.88,1.74.81,6.66-.47,8.23s-12.93-6.82-14.45-5.49-.55,4.69-2.23,5.78-1.2,5.77-3,6.61-4.57-.78-6.45-.2c-2.3.71-3.89,4.87-6.21,5.2s-5.07-5.31-7.41-5.33-4.65,2.19-7,1.83-3.83-3.18-6.05-3.88c-1.8-.57-5.67,3.95-7.25,3.07s-7.35-.15-8.43-1.61c-1.48-2,10.17-9.21,9.87-11.73-.25-2-16.15-4.51-15.85-6.65s17.06.25,17.89-1.72-.51-2.79.84-4.46-4.85-11-3-12.21c1.61-1.09,4.92-.08,6.64-1s4.07-.47,5.43-1.84"/><path class="cls-5" d="M184.24,176.12c1.66-1.48-4.33-13.24-2.42-14.48s11.3,11.22,13.34,10.28,1.27-7.39,3.41-8,4-3,6.16-3.11,3.5,5,5.66,5.52c2.43.54,3.53.13,5.49,1.36s4,1.07,5.52,2.87.94,3.38,1.77,5.39,6.74,2.48,6.94,4.68,3.55,5.53,3.11,7.72-3.09,4.75-4.12,6.77c-.88,1.74.81,6.66-.47,8.23s-12.93-6.82-14.45-5.49-.55,4.69-2.23,5.78-1.2,5.77-3,6.61-4.57-.78-6.45-.2c-2.3.71-3.89,4.87-6.21,5.2s-5.07-5.31-7.41-5.33-4.65,2.19-7,1.83-3.83-3.18-6.05-3.88c-1.8-.57-5.67,3.95-7.25,3.07s-7.35-.15-8.43-1.61c-1.48-2,10.17-9.21,9.87-11.73-.25-2-16.15-4.51-15.85-6.65s17.06.25,17.89-1.72-.51-2.79.84-4.46-4.85-11-3-12.21c1.61-1.09,4.92-.08,6.64-1s4.07-.47,5.43-1.84"/><path class="cls-5" d="M350.61,185.22c1.23,1.73,14.94-1.12,15.21.77s-16,1.5-16.88,3.42c-.72,1.67,4.93,5.35,3.31,6.86-1.32,1.23-1.47,4-3.42,5.08-1.74.93-5.52-3.54-7.61-2.83-1.91.65-3.19,2-5.29,2.43s-3.49,2.39-5.58,2.69c-2.3.33-4.49-.85-6.85-.72s-4.56,6.34-6.89,6.26-5.44,3.56-7.72,3.26-5-2.66-7.18-3.23c-2.42-.63-7.35,2.36-9.32,1.41-2.32-1.12,4.42-15.08,3-16.53-1.82-1.79-4.57.38-5.09-1.69s-4.89-4.19-4-6.43c.74-1.8,4.19-2.1,5.73-3.79,1.32-1.46.26-5.93,2.06-7.28,1.6-1.2,6.81,3,8.72,1.88s2.27-4.19,4.24-5.1,5,.66,7.45-.09c2.25-.69,3.24-7.19,5.76-7.49,1.83-.22,4-5,5.86-5s3,14.93,4.77,15.09c2.19.2,6.86-16.79,9-16.4s-.09,18.8,1.88,19.44c2.27.73,3.35-.7,5,.31,2.19,1.33,12.25-4.78,12.87-3,.78,2.27-3,4.77-1.15,6.84"/><path class="cls-6" d="M354.26,239c.09,2.12,12.28,7,11.47,8.74s-13.49-6.8-15.24-5.65c-1.52,1,.92,6.82-1.26,7.2-1.78.31-3.45,2.45-5.66,2.26-2-.17-2.78-5.63-4.92-6.17-2-.5-3.75-.17-5.77-.91s-4.21,0-6.12-.89c-2.11-1-3.36-3.09-5.4-4.27s-7.07,2.49-9,1.16-6.33-.17-8.08-1.65-2.8-4.85-4.32-6.51c-1.68-1.85-7.17-2.14-8.3-4-1.33-2.2,11-9.86,10.59-11.86-.55-2.49-3.81-2.35-3.11-4.36s-1.56-6,.44-7.41c1.61-1.1,4.59.37,6.8-.21,1.9-.5,3.49-4.57,5.73-4.72,2-.13,4.09,5.8,6.28,5.92,2,.11,4.18-2.11,6.33-1.79,2.3.34,3.91,3.14,6.35,3.83,2.26.64,6.51-3.9,8.78-2.77,1.65.82,5.92-1.77,7.46-.75s-5.11,13.36-3.68,14.49c1.73,1.36,14.17-9.5,15.71-8s-9.47,14.91-8.17,16.51c1.5,1.85,3.16,1.4,4,3.15,1.12,2.31,12.15,2.79,11.69,4.63-.58,2.33-5,2.48-4.54,5.21"/><path class="cls-2" d="M272.44,238.55c2.23.18,7.09-18,9.34-17.62s-.77,22.61,1.42,23.24,6.61-7.47,8.7-6.64,5.31-.91,7.29.14-.31,8.33,1.5,9.62,3.61,1.21,5.18,2.76,4.15,1.23,5.37,3.08.12,3.68.85,5.62,9.1,1.84,9.37,3.92,5.42,5.39,5.23,7.5c-.22,2.35-3.44,5.76-4.25,8s2.37,8.88,1,10.83-18.2-9.76-20-8.19.3,5.81-1.84,6.94-1.61,7.6-4,8.26c-2.2.62-5.15-2.52-7.52-2.28s-4.57,5.64-6.94,5.54-3.67-8.67-6-9.05-5,2.55-7.22,1.92-3-4.55-5.19-5.4-7.61,5.55-9.65,4.47-7.56,2.85-9.38,1.65,8-18.31,6.28-19.68-18.84,14.26-20.4,12.73,14.74-19.77,13.34-21.44-4-1.3-5.19-3.09-16,4.77-17.08,2.87c-1.23-2.25.49-6.87-.23-9.19-.78-2.52,1.08-6.17,1.45-8.58.25-1.65-.41-4.26.39-5.74s-5.24-9.3-4.16-10.59c1.43-1.72,19,13.08,20.9,11.63s1.63-1.82,3.77-2.84.45-8.22,2.75-8.76,3.75-7.9,6.13-7.93,6.65-5.5,9-5c1.79.38-.7,17.87,1.08,18.42s8.08-15.38,9.86-14.94,1.56,1.06,3.39,1.11"/><path class="cls-5" d="M283.51,212.1c2.21-.17,4.58-13.69,6.86-13.52s2.09,16.41,4.29,16.9,5.53-5.37,7.59-4.53,5,0,6.82,1.18-.43,6.27,1,8c1.6,1.9,2.73,2.17,3.54,4.33s2.61,3.24,2.71,5.57c.09,2.18-1.34,3.21-1.9,5.32s4.07,6.14,2.91,8-.44,6.68-2.12,8.16-5.42,1.88-7.46,2.87c-1.76.85-3.38,6-5.35,6.44s-6.25-13.84-8.27-13.7-3.25,3.53-5.25,3.38-4.47,4-6.41,3.62-3.13-3.49-5-4.17c-2.26-.83-6.11,1.65-8.16.51s-.68-7.5-2.53-8.93-5.08-1-6.7-2.68-1-4.91-2.38-6.81c-1.09-1.54-7.1-.18-7.83-1.83s-5.94-4.61-5.91-6.43c0-2.49,14.2-1,15.48-3.2,1-1.75-10.63-13.79-9.09-15.31s13.85,11.08,15.7,10,1.18-2.56,3.26-3.07,2.75-12.13,4.93-12c1.94.11,4,3,5.91,3.3s3.5,2.16,5.42,1.89"/><path class="cls-5" d="M178.11,278.08c2.33.23,7.57-12.6,9.81-11.89s-2.23,16.48-.2,17.64,6.89-3.49,8.6-1.89,4.72,1.89,6,3.89-3,5.6-2.41,7.92c.54,2,1.55,2.84,1.65,4.92s1.61,3.54,1.34,5.6-1.9,3.28-2.48,5.27c-.64,2.19,4.18,6.3,3.18,8.37s.75,6.48-.56,8.34-4.68,3.17-6.3,4.77-1.64,7.23-3.53,8.47-10.79-11-12.93-10.19c-2,.71-2.08,4.26-4.09,4.5s-3.84,4.81-5.88,4.61-3.54-3.19-5.5-3.8-5.48,2.16-7.29,1.18,0-7.14-1.61-8.45-4.58-.74-5.94-2.34-.32-4.49-1.43-6.29-7.27-.81-8.12-2.75-6-2.82-6.63-4.84,12.82-7.43,12.43-9.5c-.44-2.34-17.53-3.38-17.52-5.8s17.72-2.11,18.49-4.42c.55-1.63-.92-2.29,0-3.76s-7.63-9.62-6.53-10.93c1.26-1.5,4.85-1.54,6.33-2.85s4.3-1.3,6-2.33,3.22-3.08,5-3.75,3.8-8.18,5.73-8.33S166,276,168,276.54a34.22,34.22,0,0,1,4.7,1.56c1.83.78,6.64-3.37,8.65-3.33"/><path class="cls-4" d="M139.12,200.79c1.42-1.5-10.19-17.31-8.58-18.62S147.26,198.6,149,197.51s-1.75-10,.14-10.82,2.6-4.4,4.58-5,5.12,6.61,7.17,6.32,2.95-1.6,5-1.55,3.5-2.07,5.55-1.66,2.63,2.55,4.59,3.32,7.48-6,9.33-4.84,7.32-1.49,9-.11,2.14,5.28,3.61,6.86,8.25,0,9.53,1.77-15.23,15.49-14.1,17.48,6.18,1.1,7.06,3.21,7.72,2,8.35,4.14-2.58,5.23-2.24,7.47,6.1,4.23,6.12,6.5-8.83,3.86-9.16,6.11,2.77,4.76,2.05,6.92c-.66,2-4.57,2-5.52,3.83s5.16,7.95,3.94,9.61,1.67,8.2.2,9.67-16.35-12.62-18-11.38S195.7,278,193.88,279s-14.52-21.05-16.46-20.3-1.81,3.17-3.83,3.65-1.16,17.29-3.26,17.52-5-3.28-7.11-3.3-4.3-2.6-6.4-2.84-4.6,1-6.68.53-7.23,8.42-9.26,7.8,3.93-23.91,2-24.69-3.28-.85-5.18-1.79-7.07,5-9,3.8-8.3,3.3-10,1.79-8.88-.48-10.15-2.35,13.56-12.75,12.71-15-18.59.33-19.09-2-.44-5.82-.65-8.12,2.4-5.75,2.5-8,5.89-4.57,6.35-6.79,3.38-3.83,4.25-5.92,11.8,3.49,13.16,1.67-13.64-19.43-11.76-20.82c1.49-1.1,13.65,14.44,15.29,13.53s-.08-8.34,1.46-9.36,9.83,2.4,11,.92"/><path class="cls-3" d="M277.15,104.36c2.2-.07,4.79-19.12,7.05-19s2.2,23,4.43,23.27,5.49-8.53,7.66-8,5.06-1.83,7.16-1.14,1.16,8.41,3.16,9.31,3.83.48,5.66,1.66,4.34.29,5.9,1.79.64,3.3,1.67,4.83,9.21-.68,9.85,1.07,6.44,4,6.6,5.86c.18,2.11-2.52,6.1-3,8.13s3.39,8.55,2.31,10.4-18.78-9.19-20.34-7.68,1.09,5.49-.79,6.61c-1.71,1-.62,7.54-2.69,8.29s-5.3-2.19-7.64-1.74-3.92,6.13-6.28,6.28-4.6-8.39-6.93-8.48-4.59,3.23-6.89,2.92-3.65-4.14-5.89-4.65-6.62,6.86-8.79,6.15-6.77,4.32-8.71,3.5,4.62-19.81,2.76-20.78S247.76,151.17,246,150s10.61-22.78,8.95-24.05-4.1-.32-5.63-1.74-14.73,8.5-16.1,6.94c-1.55-1.76-.69-6.48-1.77-8.35-1.23-2.11-.09-6-.13-8.09-.06-2.84.11-7,1.81-9.43,1.18-1.7-3.2-11.16-1.46-12.66,1.59-1.37,16.69,16.51,18.7,15.43s1.69-1.45,3.86-2.11,1.39-8.15,3.65-8.39c2.1-.22,4.28-7.54,6.55-7.37,1.82.14,4.9-5.49,6.74-5.21s1.26,18.27,3.08,18.47,3.76-17.08,5.56-17.22"/><path class="cls-5" d="M237.88,288.52c1.42-1.91-4.85-11.4-3-12.95s11,8.23,13.13,7.18,1.66-6.57,4-7,4.55-2.14,6.93-1.69,2.43,5.15,4.48,6.31,3.55,1.42,5.23,3.06,3.5,1.89,4.66,3.72.86,3.68,1.55,5.73,5.84,3,6,5.18,3,5.43,2.48,7.57-2.92,4.55-3.92,6.41,0,6.58-1.46,8.15-11.16-6-12.88-4.82-1.45,4.27-3.38,5.08-2.71,4.92-4.76,5.35-4.39-1.48-6.5-1.42-4.43,3.13-6.52,2.87-3.11-5.56-5.13-6.12c-1.76-.49-3.91.94-5.54.13s-1.41-3.09-2.67-4.43c-1.76-1.88-6.83-1.63-7.67-4.06-.63-1.8-4.84-3.63-5.08-5.57s11.32-3.89,11.54-5.79S217,293.79,217.79,292s13.63,4.7,15.05,3.33c1.17-1.13,1.14-2.65,2.44-3.65s-4.24-8.64-3.35-10"/><path class="cls-7" d="M220.63,131.94c-2.14.65.47,21.87-1.75,22.27s-7.35-24.48-9.6-24.35-3.52,10.47-5.76,10.34-4.73,2.94-6.93,2.52-1.78-9-3.9-9.68-3.71.12-5.7-.9-4.44.37-6.24-1-1.36-3.73-2.9-5.4-10,2.5-11.21.64-7.77-1.86-8.67-3.89.56-6-.06-8.13-7.94-4-8.29-6.16,22.57-6.9,22.52-9.24-5.36-3.87-5.12-6.2-6.37-5.64-5.82-7.91,5.17-3.25,6-5.42-3.54-7.05-2.38-9.07,10.25,1.56,11.73-.26-.15-5.76,1.62-7.31,5.39.67,7.3-.52S185,52,187.1,51.1s2.82-8.61,5-9.21,8.75,20.77,11,20.46,2.8-26.62,5.06-26.64,3.15,27.72,5.39,28,3.47-2.13,5.65-1.59,9.56-16.27,11.67-15.49,3.17,5.57,5.19,6.58,2.88,4.55,4.79,5.76,4.9,1.18,6.69,2.56,11-4.92,12.67-3.39S245,79.69,246.49,81.36s2.74,2.3,4.11,4.07,9.16-1.77,10.35.19,9.59.55,10.41,2.68,8.35,4.76,8.61,7.06-19.57,4.9-19.91,7.31,17.94,9.2,17.22,11.52c-.61,2-2.38,4.86-3.23,6.77s-4.89,3.34-6,5.12-7.49.56-8.78,2.18-4.6,1.42-6.11,2.82-10.25-8.82-12-7.72,8.05,24.46,6.1,25.19-9.07-19.34-11.16-19.07-2.69,8.24-4.74,8.26-5-8.76-7.06-8.59-6.7,2.62-8.63,3.36"/><path class="cls-5" d="M73.27,225.43c-2,.52.53,22.94-1.54,23.28s-7.24-26-9.32-25.82S59.38,234,57.3,234s-4.24,3.38-6.29,3.17-2.35-9.25-4.37-9.67-3.59.66-5.55,0-4.21,1.28-6.07.4-1.93-3.41-3.64-4.55-9.22,5.4-10.73,4-8.2.28-9.43-1.36-.63-6.08-1.59-7.91S.68,215.67,0,213.7s22.52-10.37,22.14-12.41S16,198.83,16,196.64s-7.43-4.5-7.14-6.67,5-3.41,5.59-5.51-4.57-6.56-3.63-8.55,10.66,1.26,11.9-.56-1-5.6.54-7.21,5.42.49,7.19-.85-2.07-10.4-.26-11.41,1.29-9,3.21-9.77S44.71,167,46.7,166.41s-1.87-28.06.16-28.4,7.62,28.42,9.68,28.28,2.88-2.88,4.94-2.83,5.29-19,7.33-18.81,4,4.79,6,5.22c2.24.48,4,3.84,6.13,4.53s5.15-.17,7.23.72,9.81-8,11.81-6.94-10.12,25.93-8.22,27.18,3.18,1.5,5,2.9,8.79-4.25,10.44-2.7,9.45-2.77,11-1.09,9-.34,10.21,1.41-15.61,14.31-14.74,16.25,21.18-1.15,21.47,1-.54,7.71-.91,9.92-4.38,5.15-5.13,7.25c-.68,1.89-7.54,1.82-8.5,3.66s-4.32,2.13-5.52,3.81-12.67-6.75-14.09-5.26,15.17,22.52,13.55,23.77S99,219.71,97.18,220.67s.74,9-1.23,9.65-4.44-8.33-6.52-8.1-3,1.76-5.15,1.77-3.45,22-5.58,22.13-8.79-22-10.84-21.34"/><path class="cls-5" d="M72.25,295.67c-2.16.57-1.43,17-3.69,17.3S63,294,60.74,294s-4.27,7.78-6.49,7.46-4.89,1.7-7,1-1.22-7.25-3.17-8.32-3.36-.75-5-2.27-3.61-.95-4.72-2.57-.29-3.43-1-5.27-8.06-1.54-8.43-3.48c-.42-2.16-5.09-5-5-7.21S22.46,268,23,265.88s-2.93-7.52-1.92-9.49,17.11,5.89,18.55,4.18-.81-5.22,1-6.58.94-7.15,3.14-8.16,5.44,1.2,7.78.6,4-5.61,6.35-5.83,4.82,7,7.21,7.15,4.74-2.6,7.06-2.12,3.35,3.89,5.5,4.65,7-4.86,9-3.83,7.38-2.12,9.28-.85-6.56,16.27-4.83,17.75,17.51-11.23,19-9.56-13.76,16.37-12.57,18.34,2.75.16,3.07,2.45c.44,3.15,13.34,7.23,12.26,10.27-.68,1.9-4.67,3.29-5.75,5.1s-4.13,2.53-5.53,4.08-2.28,4.14-4,5.34-.92,10.15-2.87,10.91-8.84-18-11-17.73a56.93,56.93,0,0,1-6.12.61c-2.39.05-5.39,6.8-7.6,7.54"/><path class="cls-4" d="M285.12,227.46c-2,.61.43,20.68-1.67,21.06s-6.94-23.16-9.07-23-3.33,9.91-5.45,9.78-4.47,2.78-6.55,2.39-1.69-8.48-3.7-9.15-3.51.12-5.39-.85-4.19.35-5.9-.92-1.29-3.52-2.75-5.09-9.45,2.39-10.58.64-7.35-1.74-8.2-3.65.52-5.66-.06-7.67-7.51-3.74-7.84-5.8,21.34-6.52,21.29-8.72-5.07-3.64-4.84-5.83-6-5.32-5.5-7.46,4.89-3.05,5.7-5.1-3.35-6.66-2.24-8.56,9.68,1.5,11.08-.21-.14-5.44,1.53-6.89,5.09.65,6.9-.48-.43-9.75,1.53-10.59,2.68-8.14,4.74-8.7,8.26,19.65,10.38,19.36,2.65-25.17,4.79-25.19,3,26.22,5.09,26.46,3.28-2,5.35-1.51,9-15.4,11-14.66,3,5.26,4.91,6.21,2.73,4.3,4.53,5.43,4.63,1.1,6.32,2.4,10.4-4.67,12-3.23-14.36,20.42-12.92,22,2.59,2.16,3.89,3.84,8.65-1.7,9.78.15,9.06.49,9.84,2.5,7.9,4.49,8.15,6.66-18.5,4.61-18.83,6.88,17,8.7,16.28,10.88-2.57,5.37-3.55,7.46-5.09,3.76-6.35,5.66-7.53.76-9.07,2.43-4.89,1.42-6.72,2.75-8.5-9.44-10.61-8.56,2.38,24.33.06,24.64c-1.91.25-5.25-19.81-7.19-19.79s-4,7.61-5.92,7.77-7.52-7.13-9.34-6.43"/><path class="cls-5" d="M343,285.16c-2,.59-1.17,16-3.31,16.32s-5.25-17.79-7.4-17.82-4.09,7.26-6.19,6.89-4.68,1.44-6.67.71-.79-6.84-2.6-8-3.12-.91-4.62-2.46-3.53-1.33-4.58-3.07-.26-3.56-.94-5.49-7.6-2-7.94-4c-.37-2.23-4.74-5-4.67-7.29s2.43-5.29,2.93-7.49-2.93-7.21-2-9.27,16.53,4.37,17.9,2.56-.78-5.15,1-6.61.63-6.79,2.65-7.83,5.19.91,7.39.29,3.69-5.36,6-5.59,4.56,6.58,6.82,6.72,4.5-2.37,6.69-1.86,3.1,3.77,5.16,4.6,6.89-4.2,8.83-3.09,7.17-1.51,8.95-.16-7,14.95-5.4,16.5,17.14-9.45,18.55-7.72S365.89,256.87,367,259s2.76.88,3,3.25c.2,1.66,13.18,3.27,12.93,4.92s-3.61,3.27-4.12,4.86c-.62,1.91-3.3,3.35-4.28,5.17s-1.18,4.44-2.46,6,1.86,9.43.28,10.71-13.19-13.46-15.05-12.63-1.21,1.06-3.29,1.32-3.39,6.19-5.59,6.23-3.26,5.88-5.33,6.64"/><path class="cls-5" d="M340.87,174.39c-2.19.71-.88,17.12-3.17,17.47S331.87,173,329.56,173s-4.35,7.72-6.61,7.28-5,1.42-7.18.55-.56-7.3-2.47-8.62-3.3-1.15-4.86-2.91-3.91-1.85-5-3.92-.3-4.17-1-6.42-8.14-2.69-8.5-5c-.34-2.14-5-4.61-5-6.79s2.25-5,2.55-7.2-4.09-6.44-3.49-8.52,18.09,2.08,19,.13-2-5-.76-6.79-1.52-6.82.08-8.3,5-.12,6.73-1.2,1.53-6.21,3.41-7,5.89,5.64,7.87,5.2,3.15-3.62,5.18-3.75,3.59,2.92,5.61,3.1,5.1-6.44,7.07-5.94,6.35-3.75,8.24-3-3.74,17-1.95,18,14.52-14.7,16.18-13.48-10.14,19-8.62,20.37,3.73.81,5.1,2.33,13.43-5.85,14.65-4.21c1.09,1.46-.13,5.08.8,6.67s0,4.41.68,6.12,2.47,3.55,2.68,5.39,8.35,5.51,8.1,7.45-20.26-.17-20.8,1.7c-.63,2.17-.54,3.1-1.52,5.18s3.95,6.42,2.65,8.27,1.81,7.8.16,9.33-2,8.05-4,9.09-9.12-12.46-11.42-12.12-3.52,15.11-5.87,15.18-2-.8-4.18.1"/><path class="cls-5" d="M382.87,230.39c-2.19.71-.88,17.12-3.17,17.47S373.87,229,371.56,229s-4.35,7.72-6.61,7.28-5,1.42-7.18.55-.56-7.3-2.47-8.62-3.3-1.15-4.86-2.91-3.91-1.85-5-3.92-.3-4.17-1-6.42-8.14-2.69-8.5-5c-.34-2.14-5-4.61-5-6.79s2.25-5,2.55-7.2-4.09-6.44-3.49-8.52,18.09,2.08,19,.13-2-5-.76-6.79-1.52-6.82.08-8.3,5-.12,6.73-1.2,1.53-6.21,3.41-7,5.89,5.64,7.87,5.2,3.15-3.62,5.18-3.75,3.59,2.92,5.61,3.1,5.1-6.44,7.07-5.94,6.35-3.75,8.24-3-3.74,17-1.95,18,14.52-14.7,16.18-13.48-10.14,19-8.62,20.37,3.73.81,5.1,2.33,13.43-5.85,14.65-4.21c1.09,1.46-.13,5.08.8,6.67s0,4.41.68,6.12,2.47,3.55,2.68,5.39,8.35,5.51,8.1,7.45-20.26-.17-20.8,1.7c-.63,2.17-.54,3.1-1.52,5.18s3.95,6.42,2.65,8.27,1.81,7.8.16,9.33-2,8.05-4,9.09-9.12-12.46-11.42-12.12-3.52,15.11-5.87,15.18-2-.8-4.18.1"/><path class="cls-4" d="M104.87,176.39c-2.19.71-.88,17.12-3.17,17.47S95.87,175,93.56,175s-4.35,7.72-6.61,7.28-5,1.42-7.18.55-.56-7.3-2.47-8.62S74,173,72.43,171.29s-3.91-1.85-5-3.92-.3-4.17-1-6.42-8.14-2.69-8.5-5c-.34-2.14-5-4.61-5-6.79s2.25-5,2.55-7.2-4.09-6.44-3.49-8.52,18.09,2.08,19,.13-2-5-.76-6.79-1.52-6.82.08-8.3,5-.12,6.73-1.2,1.53-6.21,3.41-7,5.89,5.64,7.87,5.2,3.15-3.62,5.18-3.75,3.59,2.92,5.61,3.1,5.1-6.44,7.07-5.94,6.35-3.75,8.24-3-3.74,17-1.95,18,14.52-14.7,16.18-13.48-10.14,19-8.62,20.37,3.73.81,5.1,2.33,13.43-5.85,14.65-4.21c1.09,1.46-.13,5.08.8,6.67s0,4.41.68,6.12,2.47,3.55,2.68,5.39,8.35,5.51,8.1,7.45-20.26-.17-20.8,1.7c-.63,2.17-.54,3.1-1.52,5.18s3.95,6.42,2.65,8.27,1.81,7.8.16,9.33-2,8.05-4,9.09-9.12-12.46-11.42-12.12-3.52,15.11-5.87,15.18-2-.8-4.18.1"/><path class="cls-4" d="M215.15,19.36c2.2-.07,4.79-19.12,7.05-19s2.2,23,4.43,23.27,5.49-8.53,7.66-8,5.06-1.83,7.16-1.14,1.16,8.41,3.16,9.31,3.83.48,5.66,1.66,4.34.29,5.9,1.79.64,3.3,1.67,4.83,9.21-.68,9.85,1.07,6.44,4,6.6,5.86c.18,2.11-2.52,6.1-3,8.13s3.39,8.55,2.31,10.4-18.78-9.19-20.34-7.68,1.09,5.49-.79,6.61c-1.71,1-.62,7.54-2.69,8.29s-5.3-2.19-7.64-1.74-3.92,6.13-6.28,6.28-4.6-8.39-6.93-8.48-4.59,3.23-6.89,2.92-3.65-4.14-5.89-4.65-6.62,6.86-8.79,6.15-6.77,4.32-8.71,3.5,4.62-19.81,2.76-20.78S185.76,66.17,184,65,194.6,42.26,192.94,41s-4.1-.32-5.63-1.74-14.73,8.5-16.1,6.94c-1.55-1.76-.69-6.48-1.77-8.35-1.23-2.11-.09-6-.13-8.09-.06-2.84.11-7,1.81-9.43,1.18-1.7-3.2-11.16-1.46-12.66,1.59-1.37,16.69,16.51,18.7,15.43S190,21.63,192.2,21s1.39-8.15,3.65-8.39c2.1-.22,4.28-7.54,6.55-7.37,1.82.14,4.9-5.49,6.74-5.21s1.26,18.27,3.08,18.47S216,1.41,217.78,1.26"/><path class="cls-8" d="M90.29,66.23c-2.88,0-12.41,4.56-12.27,2.39.09-1.43,16.08,2.44,17.74.14,1-1.42-3.41-6.81-1.72-8.54s1.76-4.84,3.73-6.57c1.75-1.53,7.13,1.28,9.11-.29s3.12-3.59,5.1-5.06c1.82-1.35,2.64-4,4.53-5.27s4.47-1.38,6.38-2.62.58-7.71,2.5-8.87,2.2-5.79,4.14-6.86c2.1-1.16,5.21-.73,7.16-1.68,2.23-1.08,3.07-6.36,5-7.1C144.8,14.74,151,29,152.93,28.86c3.89-.33,1.63-6.6.92-3.66-.37,1.54,3.06,5,1.59,7.14-1,1.54-4.52,1.55-6,3.33-1.27,1.5.31,5.8-1.23,7.41-1.39,1.46-7.37-1.54-8.94,0-1.3,1.26-.83,4.4-2.3,5.71s-4.4.38-5.92,1.61.84,7.15-.74,8.3c-1.77,1.28-1.16,6.54-3,7.73s-11.54-10.26-13.39-9.16c-2,1.2,4.55,17.57,2.55,18.65s-12.63-14.17-14.6-13.23c-2.33,1.11-3.12,3.32-5,4-3.14,1.13-5.18,12.93-6.39,12.42s1.13-4.47-1.2-4.24"/><path class="cls-9" d="M55.29,147.48c-2.1-2.28-11.78-7.78-9.59-8.78,1.28-.58,7.14,18.84,10,18.9,1.77,0,3.74-8.23,6.15-7.9,1.8.24,4.11-2.13,6.15-1.74,1.84.35,2.25,7.43,4.22,7.88s3.87-.24,5.8.25,4.19-1,6.08-.46,3.46,2.73,5.48,3.34,6.24-6,8.23-5.34,5.61-3.11,7.57-2.43,3.37,3.56,5.29,4.29,6.21-3.49,8.09-2.72c2,.84-3.59,19-1.79,19.88,2.05.95,5.52-2.2,7.2-1.28,2.91,1.59,8.15-1.81,9.65-.49,3.23,2.83,1.63,4.49-1.28,5.53-1.51.54-3.12,5.66-5.92,5.7-2,0-3.86-7.8-6.31-8-2.06-.16-4.45,2.78-6.78,2.49-2.1-.27-3.74-3.74-6-4.11-1.91-.31-5.19,6.72-7.25,6.32-1.91-.37-5.33,4.76-7.37,4.28s.74-18.47-1.26-19c-2.25-.64-10.89,19-13.11,18.25s3-22.78.85-23.58c-1.86-.69-4.24.64-6-.08S64,170.82,62.22,170.07c-1.91-.83-2.55-4.67-4.2-5.47-2-1-2.86-3.88-4.32-4.76-2.44-1.47-5.76-2.75-6.13-3.76-.47-1.26-4.23,5.45-6,3.84"/><path class="cls-10" d="M244.32,212.26c-2.84-1.8-18-2.11-16.74-4.3.86-1.51,17.73,13.59,20.77,12.12,1.88-.91-.37-10.24,2.41-11.07,1.9-.57,3.11-4.07,5.32-4.57,2-.45,5.48,6.79,7.65,6.4s3.73-1.92,5.89-2.23,3.77-2.83,5.91-3.07,4.59,1.42,6.89,1.22,3.9-8.94,6.18-9.07,4.51-5.61,6.78-5.68,4.88,2.41,7.13,2.42,5.13-6.2,7.34-6.11c2.4.1,3.3,21.74,5.47,21.94,2.45.23,4.8-4.47,6.87-4.1,2.37.43,5.83-5.45,7.54-4.87,2.57.88,2.35,5,3.43,6.13,1.63,1.71,5.74,4.68,4,6.64-1,1.18-7.93-4.55-10-3.38-1.54.87-1.38,4.8-3.39,5.65-1.7.72-4.66-2.05-6.64-1.36-1.78.62-1,9.32-3,9.91s-2.19,7.43-4.16,7.94-9-19-11.24-18.47c-2.08.46.25,24.72-2,25.09S289,214.74,286.7,215c-2.54.27-4.28,2.77-6.83,2.89s-4.66,17-7.16,17.07c-2.2,0-4.53-3.67-6.68-3.72s-4.41-2.61-6.5-2.75c-2.3-.15-4.74,1.25-6.75,1-2.42-.29-7.23,9-9.07,8.53-2.95-.71,7.34-20.53,6.56-21.64-1-1.43-4.4-6.37-6.88-7.59"/><path class="cls-11" d="M209.09,6.55c-2.3-.28-5.93,14.42-8.36,14.3s-4.47-18-6.85-18-4.88,7.45-7.19,7.65c-2.48.22-4.63,2.89-6.85,3.32-2.54.5-7-4.39-9-3.6-1.81.71-4,3-5.2,3.86-1.64,1.19-2.68,5.1-3.27,6.42-.82,1.83-1.66,7.39-.49,9.22.88,1.37,7.14-1.5,9.14-.32,1.47.88,4.17-2.37,6.25-1.67,1.86.63,2.77,2.84,5,3.28,2,.4,4.26-4.07,6.43-3.82s2.83,16.72,5,16.82,4.61-3.65,6.72-3.69,4.07-5.13,6.14-5.3c2.39-.2,5.07,2.4,7.31,2.05s3.82-5,6-5.54c2.38-.56,6.52,5.23,8.63,4.53,2.37-.79,3.81-4.32,5.77-5.24,3-1.41,8.9-2.87,9.48-4.66.41-1.26-6-2.2-6.93-3.43-1.24-1.55-4.56,2.08-7.26.77-2-1,.7-16.53-2-17.14-2.25-.52-7.16,17.37-9.84,17.21C215.58,23.51,214.16,4,212,4s-3.39,1.77-5.42,1.46"/><path class="cls-12" d="M329.29,112.2c-2-.19-5.11,15.09-7.19,15s-3.56-18.57-5.61-18.59-4.27,7.54-6.29,7.61-4,2.63-6,2.81c-2.13.19-5.15-5.6-7.06-5.29-2.19.36-4.65,1.93-6.42,2.46-4.42,1.32-8.29,6.21-9.34,8-1.26,2.15.07,10,3.37,12,1.81,1.09,7.22-3.94,10.39-3.11,1.94.51,4.52-3.28,6.81-2.93,2.05.32,3.64,2.5,5.88,2.69s4.24-4.61,6.45-4.54,4.11,17,6.28,17,4.52-4,6.65-4.15c2.45-.15,4.43-5.51,6.72-5.77,2.45-.29,5.25,2.33,7.5,1.93,2.47-.44,3.83-5.26,6-5.81,2.49-.63,6.84,5.3,8.9,4.56,3.11-1.11,5.58-5.73,6.18-7.15.42-1,1.47-5.45.45-6.42-1.33-1.27-7.25,2.88-10.2,1.82-2.06-.74-4.92,3.8-7.66,3.32-2.27-.39-3-16.74-5.72-16.86-2.18-.1-5,19-7.18,18.94s-3.23-20.17-5.33-20.42"/><path class="cls-9" d="M116.8,255.77c-2.89-1.12-14.36-1.77-12.83-3.62.89-1.09,15.13,14.33,17.72,13.12,1.61-.75-.39-9.29,1.91-10.06,1.72-.57,2.72-3.81,4.72-4.36,1.8-.49,5.34,5.91,7.31,5.45s3.35-2,5.3-2.36,3.31-2.8,5.24-3.16,4.32,1,6.4.64,2.93-8.38,5-8.68,3.65-5.43,5.71-5.68,4.61,1.79,6.65,1.59,4-6.06,6.06-6.19c2.19-.14,5.19,19.34,7.17,19.29,2.26-.05,4-4.56,5.89-4.47,3.31.15,6.54-5.41,8.47-4.89,4.15,1.12,3.38,3.33,1.23,5.54-1.12,1.15-.22,6.6-2.72,7.86-1.74.88-7-5.55-9.29-4.65-1.92.76-2.73,4.56-4.95,5.32-2,.68-5-1.82-7.24-1.15-1.85.56-1.63,8.57-3.66,9.12-1.88.51-2.65,6.82-4.69,7.28s-7.59-17.53-9.64-17.16c-2.31.41-1.3,22.58-3.62,22.89s-7.42-22.56-9.71-22.33c-2,.2-3.51,2.51-5.44,2.66s-3,15.6-4.91,15.69c-2.08.1-4.36-3.18-6.19-3.18-2.2,0-4.28-2.3-6-2.45-2.84-.24-6.43.1-7.21-.65-1-.93-1.45,7.07-3.76,6.42"/><path class="cls-9" d="M336.13,224.66c-3-.77-14.21-.1-12.92-2.12.76-1.19,16.38,12.06,18.81,10.55,1.51-.94-1.38-9,.82-10,1.64-.77,2.28-4,4.2-4.83,1.73-.71,5.95,5.07,7.85,4.37s3.11-2.32,5-3,3-3.12,4.85-3.72,4.39.42,6.42-.17,2-8.49,4-9,3-5.71,5-6.2,4.77,1.17,6.78.73,3.31-6.36,5.3-6.73c2.16-.4,7.38,18.11,9.35,17.83,2.24-.32,3.43-4.89,5.34-5,3.3-.25,5.85-6,7.83-5.72,4.26.62,3.8,2.89,1.92,5.34-1,1.28.49,6.48-1.84,8-1.63,1.08-7.53-4.51-9.68-3.34-1.81,1-2.2,4.78-4.32,5.8-1.91.92-5.19-1.13-7.29-.2-1.77.78-.67,8.53-2.62,9.31s-1.86,6.95-3.83,7.65-9.48-16.06-11.47-15.45c-2.24.68,1.26,22.06-1,22.64s-9.93-21-12.17-20.46c-1.94.44-3.2,2.86-5.1,3.24s-1.2,15.48-3.07,15.8c-2.05.34-4.69-2.56-6.51-2.34-2.18.27-4.52-1.72-6.22-1.66-2.85.1-6.34.84-7.2.2-1.08-.81-.59,7-3,6.59"/><path class="cls-9" d="M176.71,117.62c-2.56-1.76-13.65-5-11.74-6.49,1.12-.85,11.49,17.57,14.3,17,1.74-.36,1.74-9.2,4.16-9.42,1.81-.16,3.53-3.1,5.6-3.18,1.87-.07,3.84,7,5.86,7s3.71-1.14,5.71-1.09,3.86-2,5.83-1.89,4,2,6.08,2.11,4.78-7.55,6.87-7.36,4.81-4.48,6.87-4.25,4.07,2.82,6.11,3.1,5.33-5,7.33-4.68c2.17.37.57,20.16,2.52,20.58,2.21.47,4.92-3.56,6.76-3,3.19.9,7.63-3.8,9.38-2.85,3.78,2,2.51,4-.09,5.67-1.36.86-1.72,6.41-4.44,7.07-1.9.46-5.56-7.08-8-6.72-2,.3-3.7,3.84-6,4.07-2.11.2-4.49-3-6.78-2.81-1.93.12-3.55,8-5.66,8.09-1.95.06-4.15,6.07-6.24,6.05s-3.35-18.95-5.43-19.06c-2.34-.13-6.48,21.85-8.8,21.62s-2-23.84-4.3-24.14c-2-.26-4,1.65-5.91,1.35s-6.54,14.61-8.41,14.26c-2-.38-3.5-4.12-5.29-4.54-2.14-.5-3.64-3.24-5.25-3.77-2.71-.89-6.3-1.38-6.89-2.28-.74-1.13-3.06,6.61-5.17,5.45"/></g></svg>