<svg id="LogoSVG" xmlns="http://www.w3.org/2000/svg" viewBox="0 0 217.58 227.97">
    <path d="M74.85,36.55c-2-13.06-14.48-22.65-27.73-19.85C41.17,18,35.34,22.43,34.83,28.86c-.49,6.2,3.46,11.42,6.33,16.56,1.86,3.33,3.27,8.34-2,8.65-4.58.28-9.62-2.12-13.6-4.15a45.61,45.61,0,0,1-5.44-3.13c-.92-.64-.4-.24-.48-.31-.6-.56-1.12-1.23-1.67-1.84q-2.59-2.87-5.19-5.73c-2.48-2.73-4.94-6.61-9.14-5.85C1.77,33.4-.23,35.87,0,37.88c.55,4.33,5.64,8.47,8.37,11.58q9.8,11.17,19.72,22.24,29.41,32.94,59.35,65.4c18.32,19.82,36.66,39.74,56.11,58.47,4.92,4.74,10.09,10.31,16,13.78,5.59,3.26,13.59,2.78,19.83,3,8.82.33,18.23-.17,26.38-3.9,11.81-5.41,14.56-17.6,9-28.74-6.18-12.4-19.06-21.25-31.76-25.91a57.3,57.3,0,0,0-10.71-2.77c-6.3-1-9,8.63-2.66,9.64,12.7,2,25.49,8.58,33.36,19,2.77,3.66,4.87,7.9,4.78,11.83-.07,3.34-2.24,6.1-6.43,8-7.26,3.34-16.18,3.17-24,2.73A97.82,97.82,0,0,1,165,201c1.09.2.2.19-.93-.62l-1.22-.86c-1-.68.68.58-.63-.49s-2.45-2-3.65-3.1c-3.07-2.71-6-5.54-9-8.39C111.38,150.45,76,110.2,40.46,70.53Q29,57.79,17.72,45c-2.21-2.51-4.43-5-6.61-7.57-.61-.71-1.2-1.44-1.82-2.13-1.11-1.24.58,1.35.74,2.61L6.35,42.7h0l-3.85-.5c-1.67-.89-.64-.48.16.42.94,1.05,1.91,2.07,2.86,3.11,3.66,4,6.91,8.18,11.65,11,7.74,4.58,19.67,10.31,28.6,5.92,4.68-2.3,7.32-7.41,7.29-12.56,0-5.94-4.26-10.84-6.84-15.86-1.18-2.31-2.4-4.61,0-6.47C48,26.3,50.8,26,53,26.28c7.09.77,11.15,6.26,12.18,12.93,1,6.34,10.61,3.65,9.64-2.66Z"/>
    <path d="M159.55,62.86c.9,41.73,2.1,83.45,3.14,125.17.12,4.95.32,9.9.33,14.85,0,6.43,10,6.45,10,0-.12-35.68-1.81-71.41-2.7-107.08q-.41-16.47-.78-32.94c-.14-6.43-10.14-6.45-10,0Z"/>
    <path d="M174.93,150.15c6.85-10.54,16-19.28,23.81-29,4-5-3-12.09-7.07-7.07-8.39,10.43-18.05,19.79-25.38,31.06-3.52,5.41,5.14,10.43,8.63,5Z"/>
    <path d="M60.53,80.88h45c6.43,0,6.45-10,0-10h-45c-6.43,0-6.45,10,0,10Z"/>
    <path
d="M140,116.88c.46,23.66.95,47.34,1,71,0,6.43,10,6.45,10,0-.05-23.66-.54-47.34-1-71-.12-6.43-10.13-6.45-10,0Z"/>
    <path d="M48.5,92.57c-19,13.65-34.44,33.08-34.78,57.39-.27,19.91,9.61,38.8,23.4,52.67C50.61,216.19,68.71,226.23,88,227.8a50.7,50.7,0,0,0,25.61-4.49,45.72,45.72,0,0,0,11.4-7.75c2.91-2.67,8.47-7.28,6.61-11.67-1.94-4.58-9.64-3.59-13.67-3.67-8.63-.18-17.26-.15-25.89-.13-20.76.07-41.52.32-62.28.59l-10.29.13c-1.1,0-5.05-.61-6,.07-.06,0-.29-.06-.34,0l2.25,1.74q2.53.69,2.4,2.89c0-.06.05-.42,0-.45s-.21.91,0,.4c.11-.36.14-.76.24-1.13.54-2,1.08-4.06,1.7-6.08,5.19-16.93,11.5-33.55,17.61-50.16,16.16-43.91,33-87.56,49.54-131.31q2-5.29,4-10.58H81.21c6.65,21,12.11,42.42,17.89,63.67,7.48,27.49,14.87,55,22,82.6,2.12,8.21,4.43,16.42,6.12,24.74,1.28,6.3,10.92,3.63,9.64-2.66-4-19.73-9.86-39.21-15-58.66q-11.18-42.06-22.8-84c-2.64-9.47-5.21-19-8.18-28.34-1.56-4.93-7.94-4.55-9.64,0C66.24,43.46,50.87,83.2,36,123.13c-7.2,19.28-14.39,38.58-21.11,58-2,5.79-4,11.58-5.68,17.48-.94,3.33-2.6,7.88.24,10.74s10.24,1.42,13.78,1.38l25.73-.32c19.91-.23,39.83-.47,59.74-.34,3.47,0,6.95.05,10.42.14,2.06.05,4.52.57,6.55.3,1-.14-.52.45-.42-.06-.15.77-1.56-7.55-2.27-7.41-1.15.23-3.72,4.22-4.71,5.14a35.87,35.87,0,0,1-10.4,6.8c-15.37,6.51-33.17,1.66-46.92-6.44-15.58-9.18-28.93-23.89-34.49-41.3-6.1-19.09-.86-38.46,12.5-53.15A93.66,93.66,0,0,1,53.55,101.2c5.18-3.73.19-12.4-5-8.63Z"/>
    <path d="M144,102.68c6.43,0,6.45-10,0-10s-6.45,10,0,10Z"/>
</svg>